.
 
http://www.scenetime.com    -  Hottest private tracker on the net. !!!

Sign up will close shortly !!  Join now 

        Seed back for speed


...................................NFO:.................................................








































          
          
              
              
                    
                    
                    
                    

Fright.Night.2011.TS.Xvid-SiC

Poster:
[img]http://img546.imageshack.us/img546/7510/frightnightposter.jpg[/img]

IMDB Link:
http://www.imdb.com/title/tt1438176/

Description:
A teenager suspects that his new neighbor is a vampire. 

MediaInfo:
General
Complete name                    : Fright.Night.2011.TS.Xvid-SiC.avi
Format                           : AVI
Format/Info                      : Audio Video Interleave
File size                        : 1 015 MiB
Duration                         : 1h 38mn
Overall bit rate                 : 1 444 Kbps

Video
ID                               : 0
Format                           : MPEG-4 Visual
Format profile                   : Advanced Simple@L5
Format settings, BVOP            : Yes
Format settings, QPel            : No
Format settings, GMC             : No warppoints
Format settings, Matrix          : Default (H.263)
Muxing mode                      : Packed bitstream
Codec ID                         : XVID
Codec ID/Hint                    : XviD
Duration                         : 1h 38mn
Bit rate                         : 1 309 Kbps
Width                            : 720 pixels
Height                           : 304 pixels
Display aspect ratio             : 2.35:1
Frame rate                       : 29.970 fps
Resolution                       : 8 bits
Colorimetry                      : 4:2:0
Scan type                        : Progressive
Bits/(Pixel*Frame)               : 0.200
Stream size                      : 920 MiB (91%)
Writing library                  : XviD 64

Audio
ID                               : 1
Format                           : MPEG Audio
Format version                   : Version 1
Format profile                   : Layer 3
Mode                             : Joint stereo
Format_Settings_ModeExtension    : MS Stereo
Codec ID                         : 55
Codec ID/Hint                    : MP3
Duration                         : 1h 38mn
Bit rate mode                    : Constant
Bit rate                         : 128 Kbps
Channel(s)                       : 2 channels
Sampling rate                    : 44.1 KHz
Stream size                      : 89.9 MiB (9%)
Alignment                        : Aligned on interleaves
Interleave, duration             : 133 ms (4.00 video frames)
Interleave, preload duration     : 208 ms
Title                            : 2ch English

Screenshots:
[img]http://img641.imageshack.us/img641/2793/vlcsnap2011082823h00m14.png[/img]
[img]http://img38.imageshack.us/img38/1921/frightnight2011tsxvidsi.png[/img]
[img]http://img714.imageshack.us/img714/1921/frightnight2011tsxvidsi.png[/img]
[img]http://img690.imageshack.us/img690/1921/frightnight2011tsxvidsi.png[/img]
[img]http://img856.imageshack.us/img856/1921/frightnight2011tsxvidsi.png[/img]

Note :   

Source : 720p.TS IMAGiNE Thanks!!!

Encoder: Bezauk

Enjoy!

Respects to CaptainHomey, Cyanide, CM8, Rx, THC, ELEKTRI4KA, 
Killerhz, PA, YeFsTe, BoxSlots, MrRep and everyone in the struggle...